#!OML:ASF X:\für Bonn\!DataBase\2005_08_12_Daniel\c3d\Daniel.ASF
:FULLY-SPECIFIED
:DEGREES
1859
root 12.6564 16.0288 -15.6537 -181.411 214.41 -170.213
lowerback 19.4396 1.18747 -8.92987
upperback 3.94036 -0.857398 -5.90462
thorax -6.5774 -0.360131 -1.10527
lowerneck -6.19018 -1.39188 -11.7015
upperneck 4.94837 -1.04093 3.30486
head 2.84545 -0.64558 3.16686
rclavicle -3.06128e-014 -1.27222e-014
rhumerus -40.4143 7.31364 -98.7826
rradius 32.485
rwrist 6.29894
rhand -13.8805 15.4368
rfingers 7.12502
rthumb 12.2443 -14.1848
lclavicle -3.06128e-014 -1.27222e-014
lhumerus -38.3526 4.583 89.4201
lradius 59.3659
lwrist 9.10754
lhand -16.9382 -5.68671
lfingers 7.12502
lthumb 9.29498 24.0884
rfemur -11.5421 -3.57627 11.1237
rtibia 75.8277
rfoot 10.948 0.658542
rtoes -9.24851
lfemur -29.1525 -1.73989 -29.6092
ltibia 64.8132
lfoot -38.4613 -3.06731
ltoes -7.55211
1860
root 12.5181 15.9991 -15.4388 -181.35 214.363 -170.214
lowerback 19.6297 0.918621 -9.10619
upperback 3.95367 -1.2665 -5.8723
thorax -6.64148 -0.552295 -0.871561
lowerneck -6.17702 -1.30542 -11.9573
upperneck 4.87991 -0.895517 3.12909
head 2.80873 -0.582633 3.15947
rclavicle -5.56597e-014 6.83819e-014
rhumerus -40.6765 5.89211 -97.9234
rradius 31.5792
rwrist 6.56643
rhand -14.0679 14.83
rfingers 7.12502
rthumb 12.0636 -14.8022
lclavicle -5.56597e-014 6.83819e-014
lhumerus -37.7279 4.0183 89.7067
lradius 60.279
lwrist 9.56011
lhand -17.3996 -5.95663
lfingers 7.12502
lthumb 8.84972 23.8378
rfemur -14.1932 -4.39313 10.8973
rtibia 78.3442
rfoot 9.8614 1.56721
rtoes -9.75422
lfemur -28.0778 -1.68521 -29.6672
ltibia 64.7626
lfoot -39.4153 -3.13543
ltoes -7.56833
1861
root 12.3775 15.9745 -15.2236 -181.276 214.253 -170.25
lowerback 19.794 0.611516 -9.2635
upperback 3.99962 -1.71322 -5.82419
thorax -6.65042 -0.76471 -0.620021
lowerneck -6.25836 -1.20459 -12.0455
upperneck 4.84332 -0.726727 2.842
head 2.79432 -0.508849 3.0827
rclavicle 2.74323e-014 -1.90833e-014
rhumerus -40.9197 4.28143 -96.8528
rradius 30.7308
rwrist 7.02387
rhand -14.3914 14.2884
rfingers 7.12502
rthumb 11.7517 -15.3619
lclavicle 2.74323e-014 -1.90833e-014
lhumerus -36.8005 3.7053 89.9173
lradius 60.996
lwrist 9.66396
lhand -17.6393 -6.25396
lfingers 7.12502
lthumb 8.61847 23.5501
rfemur -16.8527 -5.33392 10.73
rtibia 80.7261
rfoot 8.88991 2.39018
rtoes -10.0974
lfemur -26.9167 -1.63545 -29.6883
ltibia 64.5736
lfoot -40.247 -3.18786
ltoes -7.82373
1862
root 12.2323 15.9603 -15.0034 -181.113 214.173 -170.376
lowerback 19.8596 0.294453 -9.39165
upperback 4.02016 -2.14895 -5.71629
thorax -6.6296 -0.971635 -0.322382
lowerneck -6.35033 -1.0938 -12.0042
upperneck 4.85898 -0.546885 2.4309
head 2.79562 -0.433098 2.93909
rclavicle 3.18055e-015 -1.90833e-014
rhumerus -41.3465 2.81703 -95.7024
rradius 30.0503
rwrist 7.21995
rhand -14.8304 13.8056
rfingers 7.12502
rthumb 11.3284 -15.8684
lclavicle 3.18055e-015 -1.90833e-014
lhumerus -35.6922 3.59177 90.1165
lradius 61.5168
lwrist 9.48652
lhand -17.6454 -6.62838
lfingers 7.12502
lthumb 8.61256 23.1759
rfemur -19.5512 -6.24847 10.7159
rtibia 82.937
rfoot 8.10517 3.22721
rtoes -11.0822
lfemur -25.6768 -1.5666 -29.6138
ltibia 64.239
lfoot -41.0409 -3.22731
ltoes -8.27765
1863
root 12.0852 15.9472 -14.7752 -180.923 214.081 -170.516
lowerback 19.7956 -0.0656743 -9.4139
upperback 4.06199 -2.60244 -5.65432
thorax -6.51824 -1.19352 -0.131211
lowerneck -6.38741 -0.954009 -11.8526
upperneck 4.76905 -0.349684 2.05541
head 2.74865 -0.34164 2.78683
rclavicle -9.10434e-014 1.59028e-014
rhumerus -41.6059 1.25798 -94.4593
rradius 29.1837
rwrist 7.75417
rhand -15.4148 13.5304
rfingers 7.12502
rthumb 10.7646 -16.1738
lclavicle -9.10434e-014 1.59028e-014
lhumerus -34.5695 3.3297 90.2025
lradius 62.2226
lwrist 9.31141
lhand -17.6487 -6.67071
lfingers 7.12502
lthumb 8.60934 23.1337
rfemur -22.2497 -7.14171 10.7758
rtibia 85.0014
rfoot 7.30776 3.93667
rtoes -12.1734
lfemur -24.3345 -1.49653 -29.5384
ltibia 63.759
lfoot -41.7342 -3.25963
ltoes -8.54776
1864
root 11.933 15.9436 -14.5443 -180.597 214.003 -170.804
lowerback 19.6309 -0.450613 -9.3682
upperback 4.09867 -3.05535 -5.53985
thorax -6.3573 -1.41765 0.0745732
lowerneck -6.42172 -0.798775 -11.5595
upperneck 4.70833 -0.138523 1.56517
head 2.70844 -0.245462 2.57011
rclavicle -2.74323e-014 5.725e-014
rhumerus -41.9381 -0.169972 -93.1938
rradius 28.3622
rwrist 8.39488
rhand -16.2013 13.3071
rfingers 7.12502
rthumb 10.0059 -16.435
lclavicle -2.74323e-014 5.725e-014
lhumerus -33.4284 3.03948 90.269
lradius 63.068
lwrist 9.14685
lhand -17.6915 -6.70053
lfingers 7.12502
lthumb 8.56807 23.1056
rfemur -25.0055 -7.96354 11.0809
rtibia 86.8788
rfoot 6.51653 4.56791
rtoes -12.943
lfemur -22.9769 -1.4171 -29.2944
ltibia 63.1418
lfoot -42.3569 -3.40672
ltoes -8.68272
1865
root 11.7803 15.943 -14.317 -180.17 213.909 -171.157
lowerback 19.4262 -0.848525 -9.2594
upperback 4.10857 -3.50792 -5.40643
thorax -6.20524 -1.64177 0.260946
lowerneck -6.25978 -0.627353 -11.1671
upperneck 4.48206 0.054515 1.09179
head 2.57734 -0.149393 2.33812
rclavicle 1.03368e-014 -4.77083e-015
rhumerus -42.4301 -1.22941 -92.0061
rradius 27.6847
rwrist 9.02273
rhand -17.2062 13.1856
rfingers 7.12502
rthumb 9.03637 -16.6009
lclavicle 1.03368e-014 -4.77083e-015
lhumerus -32.335 2.78168 90.3198
lradius 64.0817
lwrist 8.804
lhand -17.8846 -6.63901
lfingers 7.12502
lthumb 8.38172 23.1747
rfemur -27.9049 -8.72394 11.5673
rtibia 88.6371
rfoot 5.62386 5.01182
rtoes -13.7847
lfemur -21.657 -1.24002 -28.9366
ltibia 62.3953
lfoot -42.9538 -3.66706
ltoes -8.89215
1866
root 11.6233 15.9494 -14.0884 -179.595 213.857 -171.585
lowerback 19.0868 -1.26618 -9.16899
upperback 4.08681 -3.96874 -5.19867
thorax -6.00669 -1.87027 0.530532
lowerneck -6.15437 -0.423211 -10.6468
upperneck 4.31054 0.298099 0.427451
head 2.47274 -0.0340668 2.02333
rclavicle 3.4191e-014 1.59028e-014
rhumerus -43.0076 -2.05901 -90.7636
rradius 27.107
rwrist 10.0528
rhand -18.1984 13.0496
rfingers 7.12502
rthumb 8.07887 -16.776
lclavicle 3.4191e-014 1.59028e-014
lhumerus -31.3392 2.67156 90.3883
lradius 65.3378
lwrist 8.50988
lhand -18.2129 -6.42652
lfingers 7.12502
lthumb 8.06484 23.3996
rfemur -30.945 -9.31131 12.2373
rtibia 90.2376
rfoot 4.67167 5.11942
rtoes -14.1759
lfemur -20.3718 -1.01119 -28.4725
ltibia 61.4721
lfoot -43.4066 -4.0455
ltoes -8.98471
1867
root 11.4616 15.9664 -13.8561 -179.062 213.761 -172.09
lowerback 19.0035 -1.72238 -8.8821
upperback 3.98061 -4.48335 -4.98079
thorax -6.04554 -2.11589 0.721462
lowerneck -6.08474 -0.215887 -10.4221
upperneck 4.19834 0.564774 -0.0252256
head 2.40127 0.0918776 1.83828
rclavicle 1.19271e-014 -3.81667e-014
rhumerus -43.8702 -2.47157 -89.6146
rradius 26.7271
rwrist 11.1161
rhand -19.158 12.8844
rfingers 7.12502
rthumb 7.15263 -16.9748
lclavicle 1.19271e-014 -3.81667e-014
lhumerus -30.6091 2.65178 90.5133
lradius 66.8319
lwrist 8.11161
lhand -18.7518 -6.04324
lfingers 7.12502
lthumb 7.54476 23.8022
rfemur -33.8552 -9.81657 13.0293
rtibia 91.6156
rfoot 3.6924 5.07557
rtoes -14.893
lfemur -18.8988 -0.822318 -27.9011
ltibia 60.3761
lfoot -43.7641 -4.49924
ltoes -9.11416
1868
root 11.2927 15.9968 -13.6163 -178.572 213.671 -172.726
lowerback 18.963 -2.19063 -8.46537
upperback 3.90253 -4.98902 -4.72888
thorax -6.08536 -2.35996 0.875209
lowerneck -6.05294 -0.00331806 -10.1812
upperneck 4.16551 0.844205 -0.488916
head 2.3653 0.220901 1.64942
rclavicle 2.82274e-014 1.90833e-014
rhumerus -44.8952 -2.35508 -88.7155
rradius 26.5548
rwrist 12.0002
rhand -19.9714 12.6938
rfingers 7.12502
rthumb 6.36746 -17.1905
lclavicle 2.82274e-014 1.90833e-014
lhumerus -30.024 2.68497 90.6446
lradius 68.3912
lwrist 7.87629
lhand -19.3406 -6.00499
lfingers 7.12502
lthumb 6.97639 23.86
rfemur -36.4854 -10.1272 13.9613
rtibia 92.6731
rfoot 2.78484 4.73416
rtoes -15.0329
lfemur -17.1441 -0.632286 -27.1754
ltibia 59.0471
lfoot -43.9761 -5.0526
ltoes -8.92706
1869
root 11.1186 16.0405 -13.3732 -178.006 213.547 -173.61
lowerback 18.9281 -2.7227 -7.85881
upperback 3.85505 -5.53351 -4.41113
thorax -6.1051 -2.62722 1.00171
lowerneck -6.01339 0.253278 -9.97147
upperneck 4.13618 1.18169 -0.917708
head 2.32891 0.379164 1.48085
rclavicle 9.85972e-014 1.74931e-014
rhumerus -45.8572 -1.59441 -88.1777
rradius 26.3931
rwrist 12.7266
rhand -20.5265 12.6152
rfingers 7.12502
rthumb 5.83148 -17.2846
lclavicle 9.85972e-014 1.74931e-014
lhumerus -29.5431 2.86723 90.7687
lradius 70.0648
lwrist 7.66986
lhand -19.9782 -5.96377
lfingers 7.12502
lthumb 6.36082 23.9207
rfemur -38.8935 -10.2668 15.1651
rtibia 93.3873
rfoot 1.94486 4.19621
rtoes -15.3012
lfemur -15.2217 -0.584209 -26.1934
ltibia 57.4943
lfoot -43.961 -5.67098
ltoes -8.52312
1870
root 10.9367 16.1064 -13.122 -177.325 213.406 -174.753
lowerback 18.9191 -3.25822 -7.02555
upperback 3.77487 -6.03933 -4.03793
thorax -6.19795 -2.87595 1.05612
lowerneck -5.82617 0.518836 -9.70965
upperneck 4.09267 1.50973 -1.37027
head 2.26377 0.534467 1.29376
rclavicle 1.4392e-013 2.22639e-014
rhumerus -47.0378 -0.561647 -87.8091
rradius 26.5166
rwrist 13.3002
rhand -20.6545 12.7562
rfingers 7.12502
rthumb 5.70793 -17.1469
lclavicle 1.4392e-013 2.22639e-014
lhumerus -29.2894 2.9914 90.905
lradius 71.8832
lwrist 7.61865
lhand -20.6272 -6.11356
lfingers 7.12502
lthumb 5.73433 23.7888
rfemur -41.0502 -10.2302 16.6547
rtibia 93.6783
rfoot 1.25802 3.59608
rtoes -16.0385
lfemur -13.0807 -0.721471 -24.9644
ltibia 55.6552
lfoot -43.6808 -6.32934
ltoes -7.53681
1871
root 10.7466 16.1931 -12.8632 -176.571 213.226 -176.151
lowerback 18.8763 -3.82186 -5.96355
upperback 3.75912 -6.52588 -3.61157
thorax -6.22935 -3.12369 1.03167
lowerneck -5.67287 0.775182 -9.49736
upperneck 4.01378 1.82887 -1.75888
head 2.19635 0.688089 1.13687
rclavicle -4.77083e-015 1.43125e-014
rhumerus -48.4213 1.0214 -87.801
rradius 27.0861
rwrist 13.3519
rhand -20.373 13.0925
rfingers 7.12502
rthumb 5.97975 -16.8031
lclavicle -4.77083e-015 1.43125e-014
lhumerus -29.0314 3.00534 90.9752
lradius 73.7957
lwrist 7.72565
lhand -21.1248 -6.38356
lfingers 7.12502
lthumb 5.25385 23.5313
rfemur -42.8961 -10.0983 18.3901
rtibia 93.5706
rfoot 0.742431 3.02332
rtoes -16.309
lfemur -10.7198 -1.16627 -23.5722
ltibia 53.5325
lfoot -43.1611 -6.71241
ltoes -6.64987
1872
root 10.5533 16.2866 -12.5972 -175.753 213.019 -177.679
lowerback 18.7578 -4.42441 -4.70465
upperback 3.77043 -7.02001 -3.17182
thorax -6.22179 -3.38119 0.906953
lowerneck -5.60269 1.03573 -9.31811
upperneck 3.98093 2.16629 -2.11693
head 2.16113 0.848729 0.998415
rclavicle 6.71892e-014 3.97569e-014
rhumerus -50.0737 3.08109 -88.1385
rradius 28.1353
rwrist 12.9763
rhand -19.8645 13.5758
rfingers 7.12502
rthumb 6.47064 -16.3053
lclavicle 6.71892e-014 3.97569e-014
lhumerus -28.6948 3.0874 90.9745
lradius 75.7379
lwrist 7.97344
lhand -21.3733 -6.84997
lfingers 7.12502
lthumb 5.01388 23.0707
rfemur -44.5408 -9.91404 20.2427
rtibia 93.1576
rfoot 0.455306 2.47127
rtoes -16.9204
lfemur -8.27244 -1.70598 -22.1395
ltibia 51.1981
lfoot -42.36 -6.7945
ltoes -6.13308
1873
root 10.3558 16.3807 -12.326 -174.991 212.837 -179.2
lowerback 18.6679 -5.00068 -3.37335
upperback 3.74001 -7.47759 -2.76007
thorax -6.30091 -3.61979 0.709748
lowerneck -5.4702 1.28717 -9.08665
upperneck 3.99399 2.48412 -2.50302
head 2.13344 0.998281 0.841314
rclavicle 1.63003e-014 5.40694e-014
rhumerus -52.0388 5.24413 -88.6293
rradius 29.481
rwrist 12.2938
rhand -19.1804 14.3791
rfingers 7.12502
rthumb 7.13098 -15.4807
lclavicle 1.63003e-014 5.40694e-014
lhumerus -28.4959 3.05899 90.9097
lradius 77.7074
lwrist 8.21762
lhand -21.4312 -7.46401
lfingers 7.12502
lthumb 4.95805 22.458
rfemur -45.9857 -9.63738 22.0438
rtibia 92.5474
rfoot 0.319717 2.01127
rtoes -16.9162
lfemur -5.70233 -2.25835 -20.7614
ltibia 48.6938
lfoot -41.2814 -6.7102
ltoes -5.7562
